<?xml version="1.0" encoding="UTF-8"?>
<svg width="85px" height="16px" viewBox="0 0 85 16" version="1.1" xmlns="http://www.w3.org/2000/svg" xmlns:xlink="http://www.w3.org/1999/xlink">
    <title>869297B1-03A8-4F6E-AE96-315D2E1C7197</title>
    <g id="Login" stroke="none" stroke-width="1" fill="none" fill-rule="evenodd">
        <g id="Login---Default" transform="translate(-850.000000, -976.000000)" fill="#B5B5B5" fill-rule="nonzero">
            <g id="footer" transform="translate(850.000000, 944.000000)">
                <g id="Iqvia-logo-color" transform="translate(0.000000, 32.000000)">
                    <g id="g18" transform="translate(24.485597, 0.000000)">
                        <path d="M11.3724745,0.180493827 C7.6219776,0.381042524 4.71836709,3.5697668 4.92000671,7.32002743 C5.12164632,11.0502332 8.32771627,13.9381344 12.0983771,13.7375857 C12.6428041,13.7175309 13.1670671,13.6172565 13.6711662,13.4768724 L13.6711662,13.4768724 L14.1752652,14.4395062 C14.3769048,14.8406036 14.8608399,14.9809877 15.2641192,14.780439 C15.6673984,14.5798903 15.8085461,14.0985734 15.6069065,13.697476 L15.1431354,12.8351166 C17.2805154,11.5917147 18.6718287,9.22524005 18.530681,6.59805213 C18.3693693,2.86784636 15.1431354,-0.0200548697 11.3724745,0.180493827 L11.3724745,0.180493827 Z M14.4172328,11.4112209 L13.8324779,10.308203 C13.6308382,9.90710562 13.1469032,9.76672154 12.7436239,9.96727023 C12.3403447,10.1678189 12.199197,10.6491358 12.4008366,11.0502332 L12.9049356,12.0128669 L12.9049356,12.0128669 C12.6226402,12.0730316 12.3201807,12.1131413 12.0177213,12.1331962 C9.15443871,12.2735802 6.69443535,10.0875995 6.53312366,7.21975309 C6.39197592,4.37196159 8.58984777,1.92526749 11.4732943,1.76482853 C14.3365769,1.62444444 16.7965803,3.81042524 16.957892,6.6782716 C17.0587118,8.6637037 16.0101858,10.4485871 14.4172328,11.4112209 L14.4172328,11.4112209 Z" id="path4"></path>
                        <path d="M0.887214324,13.7175309 C0.443607162,13.7175309 0.0806558476,13.3565432 0.0806558476,12.9153361 L0.0806558476,1.00274348 C0.0806558476,0.561536351 0.443607162,0.200548697 0.887214324,0.200548697 C1.33082149,0.200548697 1.6937728,0.561536351 1.6937728,1.00274348 L1.6937728,12.9153361 C1.6937728,13.3565432 1.33082149,13.7175309 0.887214324,13.7175309 Z" id="path6"></path>
                        <path d="M39.1987419,13.7175309 C38.7551348,13.7175309 38.3921835,13.3565432 38.3921835,12.9153361 L38.3921835,1.00274348 C38.3921835,0.561536351 38.7551348,0.200548697 39.1987419,0.200548697 C39.6423491,0.200548697 40.0053004,0.561536351 40.0053004,1.00274348 L40.0053004,12.9153361 C40.0053004,13.3565432 39.6423491,13.7175309 39.1987419,13.7175309 Z" id="path8"></path>
                        <path d="M27.7052837,13.7175309 C27.7052837,13.7175309 27.7052837,13.7175309 27.7052837,13.7175309 C27.4028242,13.7175309 27.1205288,13.5570919 26.999545,13.2963786 L20.7285528,1.38378601 C20.5269132,0.982688615 20.668061,0.501371742 21.0713402,0.300823045 C21.4746194,0.100274348 21.9585545,0.240658436 22.1601941,0.64175583 L27.7254476,11.2106722 L33.3915209,0.64175583 C33.5931605,0.260713306 34.0972596,0.100274348 34.4803749,0.320877915 C34.8634901,0.521426612 35.0248018,1.02279835 34.8029983,1.40384088 L28.4110223,13.3164335 C28.2698746,13.5570919 27.9875791,13.7175309 27.7052837,13.7175309 L27.7052837,13.7175309 Z" id="path10"></path>
                        <g id="g16" transform="translate(44.159077, 0.000000)">
                            <path d="M9.11411078,11.0101235 L5.2426301,11.0101235 C4.79902293,11.0101235 4.43607162,10.6491358 4.43607162,10.2079287 C4.43607162,9.76672154 4.79902293,9.40573388 5.2426301,9.40573388 L9.13427474,9.40573388 C9.57788191,9.40573388 9.94083322,9.76672154 9.94083322,10.2079287 C9.94083322,10.6491358 9.57788191,11.0101235 9.11411078,11.0101235 Z" id="path12"></path>
                            <path d="M13.4896905,13.7175309 C13.207395,13.7175309 12.9250996,13.5570919 12.7839518,13.2963786 L7.21869836,2.72746228 L1.55262507,13.2963786 C1.35098545,13.6774211 0.8468864,13.8378601 0.463771124,13.6172565 C0.0806558476,13.4167078 -0.0806558476,12.9153361 0.141147733,12.5342936 L6.53312366,0.62170096 C6.67427139,0.360987654 6.95656686,0.180493827 7.23886232,0.200548697 C7.54132175,0.200548697 7.80345326,0.360987654 7.94460099,0.62170096 L14.2155931,12.5342936 C14.4172328,12.9353909 14.276085,13.4167078 13.8728058,13.6172565 C13.751822,13.6774211 13.6106743,13.7175309 13.4896905,13.7175309 Z" id="path14"></path>
                        </g>
                    </g>
                    <g id="g24" transform="translate(80.802469, 0.349794)">
                        <polygon id="path20" points="0.944444444 2.07777778 0.650617284 2.07777778 0.650617284 0.272839506 0 0.272839506 0 0 1.61604938 0 1.61604938 0.251851852 0.944444444 0.251851852"></polygon>
                        <polygon id="path22" points="2.98024691 1.59506173 2.98024691 1.59506173 3.58888889 0 4.02962963 0 4.02962963 2.05679012 3.73580247 2.05679012 3.73580247 0.335802469 3.73580247 0.335802469 3.04320988 2.05679012 2.85432099 2.05679012 2.1617284 0.335802469 2.1617284 0.335802469 2.1617284 2.05679012 1.88888889 2.05679012 1.88888889 0 2.32962963 0"></polygon>
                    </g>
                    <g id="g56" transform="translate(0.000000, 1.399177)">
                        <path d="M20.087599,10.5312229 L16.0782615,10.5312229 C15.7918802,11.0346275 15.4645874,11.4977596 15.1168387,11.9004833 L20.1080548,11.9004833 C20.496715,11.9004833 20.8035521,11.5984405 20.8035521,11.2158531 L20.8035521,11.2158531 C20.7830963,10.8332656 20.4762592,10.5312229 20.087599,10.5312229 L20.087599,10.5312229 Z" id="path26"></path>
                        <path d="M20.087599,7.91351933 L17.0192285,7.91351933 C16.9169494,8.39678769 16.7942146,8.83978368 16.6305682,9.28277967 L20.0671432,9.28277967 C20.4558034,9.28277967 20.7626405,8.98073695 20.7626405,8.5981495 C20.7626405,8.21556205 20.4762592,7.91351933 20.087599,7.91351933 L20.087599,7.91351933 Z" id="path28"></path>
                        <path d="M20.087599,5.29581574 L17.2033307,5.29581574 C17.2237865,5.51731373 17.2237865,5.71867555 17.2237865,5.94017354 C17.2237865,6.18180772 17.2237865,6.4234419 17.2033307,6.66507608 L20.087599,6.66507608 C20.4762592,6.66507608 20.7830963,6.36303335 20.7830963,5.98044591 C20.7830963,5.59785846 20.4762592,5.29581574 20.087599,5.29581574 L20.087599,5.29581574 Z" id="path30"></path>
                        <path d="M20.087599,2.67811214 L16.6714798,2.67811214 C16.8351262,3.12110813 16.957861,3.58424031 17.0396843,4.04737248 L20.087599,4.04737248 C20.4762592,4.04737248 20.7830963,3.74532976 20.7830963,3.36274231 L20.7830963,3.36274231 C20.7830963,3.00029104 20.4762592,2.67811214 20.087599,2.67811214 L20.087599,2.67811214 Z" id="path32"></path>
                        <path d="M20.087599,0.0604085445 L15.1782061,0.0604085445 C15.5259548,0.463132175 15.8532477,0.926264349 16.1191731,1.42966889 L20.087599,1.42966889 C20.4762592,1.42966889 20.7830963,1.12762616 20.7830963,0.745038716 C20.7830963,0.362451267 20.4762592,0.0604085445 20.087599,0.0604085445 L20.087599,0.0604085445 Z" id="path34"></path>
                        <path d="M6.81178254,11.2158531 L6.81178254,11.2158531 C6.81178254,10.8332656 7.11861959,10.5312229 7.50727986,10.5312229 L4.7662022,10.5312229 C4.37754193,10.5312229 4.07070488,10.8332656 4.07070488,11.2158531 L4.07070488,11.2158531 C4.07070488,11.5984405 4.37754193,11.9004833 4.7662022,11.9004833 L7.50727986,11.9004833 C7.1390754,11.9004833 6.81178254,11.5783044 6.81178254,11.2158531 Z" id="path36"></path>
                        <path d="M16.0782615,10.5312229 L7.50727986,10.5312229 C7.11861959,10.5312229 6.81178254,10.8332656 6.81178254,11.2158531 L6.81178254,11.2158531 C6.81178254,11.5984405 7.11861959,11.9004833 7.50727986,11.9004833 L15.0963829,11.9004833 C15.4645874,11.4776235 15.7918802,11.0346275 16.0782615,10.5312229 Z" id="path38"></path>
                        <path d="M4.86848122,8.73910277 C4.7662022,8.29610678 5.11395086,7.91351933 5.54352273,7.91351933 L2.80244507,7.91351933 C2.4137848,7.91351933 2.10694775,8.21556205 2.10694775,8.5981495 C2.10694775,8.98073695 2.4137848,9.28277967 2.80244507,9.28277967 L5.56397853,9.28277967 C5.23668568,9.28277967 4.92984863,9.06128168 4.86848122,8.73910277 L4.86848122,8.73910277 Z" id="path40"></path>
                        <path d="M17.0396843,7.91351933 L5.54352273,7.91351933 C5.11395086,7.91351933 4.7662022,8.29610678 4.86848122,8.73910277 C4.92984863,9.06128168 5.23668568,9.28277967 5.56397853,9.28277967 L16.6305682,9.28277967 C16.8146704,8.83978368 16.9374052,8.37665151 17.0396843,7.91351933 Z" id="path42"></path>
                        <path d="M2.90472409,6.12139918 C2.80244507,5.67840318 3.15019373,5.29581574 3.5797656,5.29581574 L0.838687941,5.29581574 C0.450027675,5.29581574 0.143190624,5.59785846 0.143190624,5.98044591 C0.143190624,6.36303335 0.450027675,6.66507608 0.838687941,6.66507608 L3.6002214,6.66507608 C3.27292855,6.66507608 2.9865473,6.44357808 2.90472409,6.12139918 L2.90472409,6.12139918 Z" id="path44"></path>
                        <path d="M2.90472409,6.12139918 C2.9660915,6.44357808 3.27292855,6.66507608 3.6002214,6.66507608 L17.1828749,6.66507608 C17.2033307,6.4234419 17.2033307,6.18180772 17.2033307,5.94017354 C17.2033307,5.71867555 17.2033307,5.49717755 17.1828749,5.29581574 L3.6002214,5.29581574 C3.17064953,5.29581574 2.82290087,5.67840318 2.90472409,6.12139918 Z" id="path46"></path>
                        <path d="M3.86614685,3.36274231 C3.86614685,2.98015486 4.1729839,2.67811214 4.56164417,2.67811214 L1.82056651,2.67811214 C1.43190624,2.67811214 1.12506919,2.98015486 1.12506919,3.36274231 L1.12506919,3.36274231 C1.12506919,3.74532976 1.43190624,4.04737248 1.82056651,4.04737248 L4.56164417,4.04737248 C4.1729839,4.04737248 3.86614685,3.74532976 3.86614685,3.36274231 Z" id="path48"></path>
                        <path d="M16.6714798,2.67811214 L4.56164417,2.67811214 C4.1729839,2.67811214 3.86614685,2.98015486 3.86614685,3.36274231 C3.86614685,3.74532976 4.1729839,4.04737248 4.56164417,4.04737248 L17.0396843,4.04737248 C16.957861,3.58424031 16.8351262,3.12110813 16.6714798,2.67811214 L16.6714798,2.67811214 Z" id="path50"></path>
                        <path d="M8.9187303,0.906128168 C8.81645128,0.463132175 9.16419994,0.080544726 9.59377181,0.080544726 L6.85269415,0.080544726 C6.46403388,0.080544726 6.15719683,0.382587449 6.15719683,0.765174897 C6.15719683,1.14776235 6.46403388,1.44980507 6.85269415,1.44980507 L9.61422761,1.44980507 C9.30739056,1.44980507 9.00055351,1.22830707 8.9187303,0.906128168 L8.9187303,0.906128168 Z" id="path52"></path>
                        <path d="M15.1782061,0.0604085445 L9.61422761,0.0604085445 C9.18465574,0.0604085445 8.83690708,0.442995993 8.9391861,0.885991986 C9.00055351,1.20817089 9.30739056,1.42966889 9.63468342,1.42966889 L16.1191731,1.42966889 C15.8532477,0.946400531 15.5259548,0.483268356 15.1782061,0.0604085445 L15.1782061,0.0604085445 Z" id="path54"></path>
                    </g>
                </g>
            </g>
        </g>
    </g>
</svg>